<svg id="Layer_1" data-name="Layer 1" xmlns="http://www.w3.org/2000/svg" viewBox="0 0 184.73 43"><defs><style>.cls-1{fill:#111;}.cls-2{fill:#f6891a;}</style></defs><path class="cls-1" d="M66.83,24.29a12.56,12.56,0,0,1-3.75-.55,8.39,8.39,0,0,1-2.89-1.43l1.28-3A9.05,9.05,0,0,0,64,20.61a8.55,8.55,0,0,0,2.9.5,5.65,5.65,0,0,0,1.81-.23,2.09,2.09,0,0,0,1-.65,1.46,1.46,0,0,0,.33-.95,1.32,1.32,0,0,0-.52-1.09,4,4,0,0,0-1.35-.66c-.56-.17-1.18-.34-1.85-.49s-1.35-.35-2-.57a8.55,8.55,0,0,1-1.85-.89A4.17,4.17,0,0,1,61,14.17a4.37,4.37,0,0,1-.53-2.26,4.94,4.94,0,0,1,.76-2.68A5.28,5.28,0,0,1,63.55,7.3a9,9,0,0,1,3.84-.72,12.45,12.45,0,0,1,3,.38A8.35,8.35,0,0,1,73.05,8.1l-1.17,3a9.53,9.53,0,0,0-2.28-1,8,8,0,0,0-2.24-.33,5,5,0,0,0-1.79.27,2.06,2.06,0,0,0-1,.7,1.6,1.6,0,0,0-.31,1,1.27,1.27,0,0,0,.52,1.06,3.86,3.86,0,0,0,1.35.65c.56.16,1.17.33,1.85.49s1.35.35,2,.56a8,8,0,0,1,1.85.86,4.2,4.2,0,0,1,1.36,1.42A4.29,4.29,0,0,1,73.75,19,4.83,4.83,0,0,1,73,21.63a5.41,5.41,0,0,1-2.3,1.93A8.84,8.84,0,0,1,66.83,24.29Z"/><path class="cls-1" d="M80.34,24H76.57V6.87h3.77ZM88,17h-8V13.63h8ZM87.75,6.87h3.78V24H87.75Z"/><path class="cls-1" d="M103.55,24.29a9.54,9.54,0,0,1-3.58-.66A8.38,8.38,0,0,1,95.27,19a9,9,0,0,1-.67-3.52,9.1,9.1,0,0,1,.67-3.53A8.38,8.38,0,0,1,97.14,9.1,8.64,8.64,0,0,1,100,7.24a9.88,9.88,0,0,1,7.1,0A8.45,8.45,0,0,1,109.9,9.1a8.65,8.65,0,0,1,1.87,2.8,8.87,8.87,0,0,1,.68,3.54,8.92,8.92,0,0,1-.68,3.53,8.43,8.43,0,0,1-1.87,2.82,8.55,8.55,0,0,1-2.82,1.84A9.28,9.28,0,0,1,103.55,24.29Zm0-3.37a4.85,4.85,0,0,0,3.63-1.52,5,5,0,0,0,1.08-1.74,6.05,6.05,0,0,0,.39-2.22,6.1,6.1,0,0,0-.39-2.23,5.14,5.14,0,0,0-1.07-1.74,4.67,4.67,0,0,0-1.62-1.12,5.43,5.43,0,0,0-4,0,4.86,4.86,0,0,0-1.62,1.12,5.16,5.16,0,0,0-1.08,1.74,6.51,6.51,0,0,0,0,4.44,5.09,5.09,0,0,0,1.07,1.75,4.83,4.83,0,0,0,1.62,1.13A5.21,5.21,0,0,0,103.53,20.92Z"/><path class="cls-1" d="M115.52,24V6.87h7.06a8.79,8.79,0,0,1,3.78.75,5.63,5.63,0,0,1,2.45,2.14,6.25,6.25,0,0,1,.86,3.33,6.19,6.19,0,0,1-.86,3.3,5.63,5.63,0,0,1-2.45,2.14,8.79,8.79,0,0,1-3.78.75h-5l1.68-1.79V24Zm3.78-6.07-1.68-1.88h4.75a3.82,3.82,0,0,0,2.62-.78,2.82,2.82,0,0,0,.86-2.18,2.83,2.83,0,0,0-.86-2.2,3.77,3.77,0,0,0-2.62-.79h-4.75l1.68-1.88Z"/><path class="cls-1" d="M138.17,24.29a12.65,12.65,0,0,1-3.75-.55,8.48,8.48,0,0,1-2.89-1.43l1.28-3a9.12,9.12,0,0,0,2.49,1.28,8.55,8.55,0,0,0,2.9.5,5.63,5.63,0,0,0,1.8-.23,2.08,2.08,0,0,0,1-.65,1.51,1.51,0,0,0,.32-.95,1.32,1.32,0,0,0-.51-1.09,4,4,0,0,0-1.35-.66c-.56-.17-1.18-.34-1.85-.49s-1.36-.35-2-.57a8.13,8.13,0,0,1-1.85-.89,4.2,4.2,0,0,1-1.37-1.41,4.37,4.37,0,0,1-.52-2.26,4.94,4.94,0,0,1,.76-2.68A5.22,5.22,0,0,1,134.9,7.3a9,9,0,0,1,3.83-.72,12.33,12.33,0,0,1,3,.38,8.35,8.35,0,0,1,2.63,1.14l-1.16,3a9.53,9.53,0,0,0-2.28-1,8.1,8.1,0,0,0-2.24-.33,5.09,5.09,0,0,0-1.8.27,2.1,2.1,0,0,0-1,.7,1.66,1.66,0,0,0-.3,1,1.28,1.28,0,0,0,.51,1.06,3.86,3.86,0,0,0,1.35.65c.56.16,1.18.33,1.86.49s1.35.35,2,.56a7.92,7.92,0,0,1,1.86.86,4.2,4.2,0,0,1,1.36,1.42,4.29,4.29,0,0,1,.52,2.22,4.74,4.74,0,0,1-.77,2.65A5.38,5.38,0,0,1,142,23.56,8.89,8.89,0,0,1,138.17,24.29Z"/><path class="cls-1" d="M151.06,24V10.1h-5.22V6.87h14.21V10.1h-5.22V24Z"/><path class="cls-1" d="M162.31,24V6.87h3.78V24Z"/><path class="cls-1" d="M178,24.29a9.39,9.39,0,0,1-3.5-.64,8.28,8.28,0,0,1-2.81-1.85A8.58,8.58,0,0,1,169.83,19a9,9,0,0,1-.67-3.54,9.13,9.13,0,0,1,.67-3.55,8.39,8.39,0,0,1,4.67-4.66,9.88,9.88,0,0,1,7.35.12,7.56,7.56,0,0,1,2.88,2.26L182.3,12a5.55,5.55,0,0,0-1.86-1.5,4.94,4.94,0,0,0-2.24-.5,5.44,5.44,0,0,0-2.09.39,4.73,4.73,0,0,0-1.66,1.12,5.16,5.16,0,0,0-1.08,1.74,6.1,6.1,0,0,0-.39,2.23,6.05,6.05,0,0,0,.39,2.22,5.16,5.16,0,0,0,1.08,1.74,4.9,4.9,0,0,0,1.66,1.13,5.44,5.44,0,0,0,2.09.39,5.08,5.08,0,0,0,2.24-.5,5.66,5.66,0,0,0,1.86-1.53l2.43,2.35a7.68,7.68,0,0,1-2.88,2.27A9.21,9.21,0,0,1,178,24.29Z"/><path class="cls-1" d="M60.45,40.82V34.4h2.74a2.57,2.57,0,0,1,1.63.45,1.44,1.44,0,0,1,.57,1.21,1.62,1.62,0,0,1-.23.88,1.42,1.42,0,0,1-.59.55,1.74,1.74,0,0,1-.82.2l.16-.28a2.12,2.12,0,0,1,.93.19,1.53,1.53,0,0,1,.64.57,1.72,1.72,0,0,1,.23.92,1.53,1.53,0,0,1-.59,1.28,2.86,2.86,0,0,1-1.75.45Zm.88-.74h2a2,2,0,0,0,1.11-.26.89.89,0,0,0,.39-.8.9.9,0,0,0-.39-.82,2,2,0,0,0-1.11-.26H61.25V37.2h1.87a1.8,1.8,0,0,0,1-.26,1,1,0,0,0,0-1.54,1.8,1.8,0,0,0-1-.26H61.33Z"/><path class="cls-1" d="M71.26,40.82V34.4h.87v6.42Z"/><path class="cls-1" d="M80.92,40.9a3.27,3.27,0,0,1-1.3-.25,3.13,3.13,0,0,1-1-.68,3.22,3.22,0,0,1-.68-1,3.44,3.44,0,0,1-.25-1.31,3.47,3.47,0,0,1,.25-1.31,3.05,3.05,0,0,1,.69-1,2.92,2.92,0,0,1,1-.69,3.47,3.47,0,0,1,1.31-.24,3.58,3.58,0,0,1,1.33.24,2.71,2.71,0,0,1,1,.75l-.54.57a2.34,2.34,0,0,0-.82-.57,2.47,2.47,0,0,0-1-.18,2.45,2.45,0,0,0-1,.19,2.29,2.29,0,0,0-.78.51,2.37,2.37,0,0,0-.5.79,2.76,2.76,0,0,0,0,2,2.59,2.59,0,0,0,.5.79,2.48,2.48,0,0,0,.78.52,2.54,2.54,0,0,0,1,.18,2.73,2.73,0,0,0,.94-.16,2.37,2.37,0,0,0,.83-.54l.5.7a3.1,3.1,0,0,1-1.06.61A3.87,3.87,0,0,1,80.92,40.9ZM82.4,40V37.57h.84v2.51Z"/><path class="cls-1" d="M95.65,40.82V34.4h.71l2.75,4.85h-.39l2.71-4.85h.72v6.42h-.84v-5h.2L99.1,40h-.4l-2.43-4.25h.22v5Z"/><path class="cls-1" d="M109.06,40h3.56v.79h-4.43V34.4h4.31v.8h-3.44ZM109,37.17h3.15V38H109Z"/><path class="cls-1" d="M121,40.9a3.24,3.24,0,0,1-1.3-.25,3.18,3.18,0,0,1-1-.68,3.39,3.39,0,0,1-.68-1,3.43,3.43,0,0,1-.24-1.31A3.47,3.47,0,0,1,118,36.3a3.2,3.2,0,0,1,.69-1,3,3,0,0,1,1-.69,3.75,3.75,0,0,1,2.64,0,2.74,2.74,0,0,1,1,.75l-.55.57a2.4,2.4,0,0,0-.81-.57,2.56,2.56,0,0,0-1-.18,2.4,2.4,0,0,0-1,.19,2.29,2.29,0,0,0-.78.51,2.24,2.24,0,0,0-.51.79,2.76,2.76,0,0,0,0,2,2.33,2.33,0,0,0,1.28,1.31,2.58,2.58,0,0,0,1,.18,2.69,2.69,0,0,0,.94-.16,2.29,2.29,0,0,0,.83-.54l.5.7a3,3,0,0,1-1.06.61A3.77,3.77,0,0,1,121,40.9Zm1.47-.94V37.57h.84v2.51Z"/><path class="cls-1" d="M128.24,40.82,131,34.4h.86l2.78,6.42h-.91l-2.48-5.91h.35l-2.47,5.91Zm1.18-1.6.24-.74h3.44l.25.74Z"/><path class="cls-1" d="M148.08,40.9a4,4,0,0,1-1.33-.23,2.71,2.71,0,0,1-1-.58l.32-.72a2.91,2.91,0,0,0,.9.54,3.05,3.05,0,0,0,1.12.21A2.57,2.57,0,0,0,149,40a1.1,1.1,0,0,0,.49-.36.84.84,0,0,0,.15-.5.71.71,0,0,0-.2-.54,1.63,1.63,0,0,0-.53-.32,5.77,5.77,0,0,0-.73-.22l-.79-.21a3.93,3.93,0,0,1-.72-.32,1.47,1.47,0,0,1-.53-.52,1.63,1.63,0,0,1-.2-.84,1.7,1.7,0,0,1,1-1.58,3,3,0,0,1,1.32-.25,4.23,4.23,0,0,1,1.06.14,2.84,2.84,0,0,1,.91.43l-.29.73a2.76,2.76,0,0,0-.83-.4,3.23,3.23,0,0,0-.85-.12,2.34,2.34,0,0,0-.85.13,1.1,1.1,0,0,0-.48.37.93.93,0,0,0-.15.52.72.72,0,0,0,.2.54,1.63,1.63,0,0,0,.53.32,5.82,5.82,0,0,0,.73.21l.79.22a3.33,3.33,0,0,1,.72.31,1.52,1.52,0,0,1,.53.51,1.59,1.59,0,0,1,.2.83,1.65,1.65,0,0,1-.25.9,1.7,1.7,0,0,1-.79.67A3,3,0,0,1,148.08,40.9Z"/><path class="cls-1" d="M156.79,40.82h-.87V34.4h.87Zm3.6-2.86h-3.68v-.8h3.68Zm-.08-3.56h.87v6.42h-.87Z"/><path class="cls-1" d="M170,40.9a3.5,3.5,0,0,1-1.3-.25,3.33,3.33,0,0,1-1-.69,3.37,3.37,0,0,1-.93-2.35,3.27,3.27,0,0,1,.25-1.3,3.17,3.17,0,0,1,1.71-1.74,3.46,3.46,0,0,1,1.3-.24,3.37,3.37,0,0,1,1.29.24A3.11,3.11,0,0,1,173,36.3a3.47,3.47,0,0,1,.24,1.31,3.43,3.43,0,0,1-.24,1.31,3.07,3.07,0,0,1-.68,1,3.13,3.13,0,0,1-1,.68A3.19,3.19,0,0,1,170,40.9Zm0-.82a2.42,2.42,0,0,0,.94-.18,2.34,2.34,0,0,0,.75-.52,2.54,2.54,0,0,0,.68-1.77,2.63,2.63,0,0,0-.18-1,2.43,2.43,0,0,0-.5-.78,2.07,2.07,0,0,0-.75-.52,2.26,2.26,0,0,0-.94-.19,2.3,2.3,0,0,0-.95.19,2.16,2.16,0,0,0-.75.52,2.13,2.13,0,0,0-.5.78,2.63,2.63,0,0,0-.18,1,2.59,2.59,0,0,0,.18,1,2.26,2.26,0,0,0,.5.79,2.26,2.26,0,0,0,1.7.7Z"/><path class="cls-1" d="M178.74,40.82V34.4h2.39a3.19,3.19,0,0,1,1.37.27,1.87,1.87,0,0,1,.87.77,2.19,2.19,0,0,1,.31,1.2,2.23,2.23,0,0,1-.31,1.2,2,2,0,0,1-.87.77,3.19,3.19,0,0,1-1.37.27h-1.91l.4-.43v2.37Zm.88-2.28-.4-.46h1.88a1.87,1.87,0,0,0,1.27-.38,1.32,1.32,0,0,0,.44-1.06,1.36,1.36,0,0,0-.44-1.07,1.87,1.87,0,0,0-1.27-.37h-1.88l.4-.46Z"/><path class="cls-2" d="M8.73,24.56H1.78A1.79,1.79,0,0,1,0,22.77H0A1.78,1.78,0,0,1,1.78,21h7a1.78,1.78,0,0,1,1.78,1.78h0A1.78,1.78,0,0,1,8.73,24.56Z"/><path class="cls-2" d="M9.68,7.09h1.91a1.75,1.75,0,0,1,1.75,1.75h0a1.75,1.75,0,0,1-1.75,1.75H9.68A1.75,1.75,0,0,1,7.94,8.84h0A1.75,1.75,0,0,1,9.68,7.09Z"/><path class="cls-2" d="M23.25,34.39a4.31,4.31,0,1,0,4.3,4.31h0A4.31,4.31,0,0,0,23.25,34.39Zm0,5.63a1.34,1.34,0,1,1,1.33-1.33A1.33,1.33,0,0,1,23.25,40Z"/><path class="cls-2" d="M40.78,34.39a4.31,4.31,0,1,0,4.3,4.31h0A4.3,4.3,0,0,0,40.78,34.39Zm0,5.63a1.33,1.33,0,1,1,1.33-1.32A1.33,1.33,0,0,1,40.78,40h0Z"/><path class="cls-2" d="M50.35,34.44,45.15,9.78A3.39,3.39,0,0,0,41.88,7.1H40.16A1.47,1.47,0,0,0,39.88,7a8.11,8.11,0,0,0-16-.1,1.8,1.8,0,0,0-.35.24H16.67a1.79,1.79,0,0,0,0,3.5H19a1.78,1.78,0,1,1,0,3.56H10.32a1.78,1.78,0,0,0-.71,3.49,1.7,1.7,0,0,0,.71,0H18.9a1.78,1.78,0,0,1,0,3.49H14.13a1.79,1.79,0,0,0,0,3.5h1.3a1.78,1.78,0,0,1-.06,3.56H7.47a1.78,1.78,0,0,0,0,3.49h8.26a1.78,1.78,0,1,1,.7,3.5,2.06,2.06,0,0,1-.7,0H9.44a1.78,1.78,0,1,0-.67,3.5,1.89,1.89,0,0,0,.67,0h8.18a5.63,5.63,0,0,1,11.25,0h6.29a5.63,5.63,0,0,1,11.25,0H47a3.4,3.4,0,0,0,3.43-3.36A3.8,3.8,0,0,0,50.35,34.44ZM25.5,7a6.44,6.44,0,0,1,12.71.13H25.66Zm-.94,20.57a1.77,1.77,0,0,1-1.24.51H20.8A1.78,1.78,0,0,1,19,26.27a1.73,1.73,0,0,1,1.69-1.78h2.61A1.78,1.78,0,0,1,25,26.34a1.81,1.81,0,0,1-.46,1.13ZM40,14.85a8.11,8.11,0,0,1-16-.09,1.66,1.66,0,1,1,2.14-1,1.56,1.56,0,0,1-.5.69,6.44,6.44,0,0,0,12.74.27,1.67,1.67,0,0,1-.4-2.31,1.65,1.65,0,0,1,2.31-.4A1.62,1.62,0,0,1,40,14.85Z"/></svg>